<svg xmlns="http://www.w3.org/2000/svg" viewBox="0 0 21 13" width="23" height="18"><style>.st0{fill:#FFFFFF;}</style><path class="st0" d="M7.3 7.8h3.2c-.6 1.6-2.1 2.7-4 2.7-2.2 0-4-1.8-4.1-3.9 0-2.2 1.9-4.1 4.2-4.1 1.1 0 2.1.4 2.8 1 .2.2.5.2.6 0l1.2-1.1c.2-.2.2-.5 0-.6C10.1.7 8.6 0 6.9 0 3.1-.1 0 2.9 0 6.5S3 13 6.7 13c3.6 0 6.5-2.7 6.7-6.1V5.4h-6c-.2 0-.5.2-.5.5v1.6c0 .1.3.3.4.3zM19 5.5V4c0-.2-.2-.4-.4-.4h-1.3c-.2 0-.4.2-.4.4v1.6h-1.6c-.2 0-.4.2-.4.4v1.3c0 .2.2.4.4.4h1.6v1.6c0 .2.2.4.4.4h1.3c.2 0 .4-.2.4-.4V7.6h1.6c.2 0 .4-.2.4-.4V5.9c0-.2-.2-.4-.4-.4H19z"/></svg>