<svg xmlns="http://www.w3.org/2000/svg" viewBox="0 0 17 13" width="18" height="14"><style>.st0{fill:#FFFFFF;}</style><path class="st0" d="M17 1.6c-.7.3-1.3.5-2 .6.8-.4 1.2-1 1.5-1.9-.7.4-1.4.6-2.2.7-.7-.6-1.6-1-2.5-1C10 0 8.4 1.5 8.4 3.3c0 .3 0 .5.1.7C5.5 3.9 3 2.6 1.3.6.9 1.1.8 1.7.8 2.2c0 1.1.7 2.1 1.5 2.7-.6 0-1.1-.2-1.6-.4 0 1.6 1.2 2.9 2.8 3.2-.2.2-.5.2-.9.2-.2 0-.5 0-.7-.1.5 1.3 1.7 2.2 3.2 2.3-1.2.8-2.7 1.4-4.3 1.4H0c1.5.9 3.4 1.5 5.4 1.5 6.4 0 9.9-5 9.9-9.4v-.4c.7-.4 1.2-1 1.7-1.6z"/></svg>