<svg xmlns="http://www.w3.org/2000/svg" viewBox="0 0 14 14" width="18" height="14"><style>.st0{fill:#FFFFFF;}</style><path class="st0" d="M12.7 0H1.3C.6 0 0 .6 0 1.3v11.4c0 .7.6 1.3 1.3 1.3h11.4c.7 0 1.3-.6 1.3-1.3V1.3c0-.7-.6-1.3-1.3-1.3zM9.6 2.1c0-.5.4-.8.8-.8h1.1c.5 0 .8.4.8.8v1.3c0 .5-.4.8-.8.8h-1.1c-.5 0-.8-.4-.8-.8V2.1zM7 3.9c1.7 0 3.1 1.4 3.1 3.1S8.7 10.1 7 10.1 3.9 8.7 3.9 7 5.3 3.9 7 3.9zm5.7 9.3H1.3c-.3 0-.5-.2-.5-.5V6h2.5c-.2.3-.2.6-.2 1 0 2.1 1.8 3.9 3.9 3.9s3.9-1.8 3.9-3.9c0-.4-.1-.7-.2-1h2.5v6.7c0 .3-.2.5-.5.5z"/></svg>